%TF.GenerationSoftware,KiCad,Pcbnew,10.0.1*%
%TF.CreationDate,2026-05-28T16:01:22-04:00*%
%TF.ProjectId,PCB Piano v1.1,50434220-5069-4616-9e6f-2076312e312e,rev?*%
%TF.SameCoordinates,Original*%
%TF.FileFunction,Soldermask,Top*%
%TF.FilePolarity,Negative*%
%FSLAX46Y46*%
G04 Gerber Fmt 4.6, Leading zero omitted, Abs format (unit mm)*
G04 Created by KiCad (PCBNEW 10.0.1) date 2026-05-28 16:01:22*
%MOMM*%
%LPD*%
G01*
G04 APERTURE LIST*
G04 Aperture macros list*
%AMRoundRect*
0 Rectangle with rounded corners*
0 $1 Rounding radius*
0 $2 $3 $4 $5 $6 $7 $8 $9 X,Y pos of 4 corners*
0 Add a 4 corners polygon primitive as box body*
4,1,4,$2,$3,$4,$5,$6,$7,$8,$9,$2,$3,0*
0 Add four circle primitives for the rounded corners*
1,1,$1+$1,$2,$3*
1,1,$1+$1,$4,$5*
1,1,$1+$1,$6,$7*
1,1,$1+$1,$8,$9*
0 Add four rect primitives between the rounded corners*
20,1,$1+$1,$2,$3,$4,$5,0*
20,1,$1+$1,$4,$5,$6,$7,0*
20,1,$1+$1,$6,$7,$8,$9,0*
20,1,$1+$1,$8,$9,$2,$3,0*%
G04 Aperture macros list end*
%ADD10C,1.550000*%
%ADD11C,0.500000*%
%ADD12C,1.200000*%
%ADD13C,0.650000*%
%ADD14R,1.100000X0.350000*%
%ADD15R,0.350000X1.100000*%
%ADD16R,4.000000X4.000000*%
%ADD17C,2.100000*%
%ADD18C,3.200000*%
%ADD19RoundRect,0.218750X0.218750X0.256250X-0.218750X0.256250X-0.218750X-0.256250X0.218750X-0.256250X0*%
%ADD20RoundRect,0.218750X0.256250X-0.218750X0.256250X0.218750X-0.256250X0.218750X-0.256250X-0.218750X0*%
%ADD21R,0.650000X0.450000*%
%ADD22R,0.850000X0.450000*%
G04 APERTURE END LIST*
D10*
%TO.C,SW4*%
X279000000Y-86000000D03*
X293000000Y-86000000D03*
%TD*%
D11*
%TO.C,MK1*%
X211000000Y-47000000D03*
%TD*%
D12*
%TO.C,J3*%
X300500000Y-45075000D03*
X293500000Y-45075000D03*
%TD*%
D13*
%TO.C,J1*%
X103390000Y-32280000D03*
X97610000Y-32280000D03*
%TD*%
D14*
%TO.C,U6*%
X184050000Y-81050000D03*
X184050000Y-81700000D03*
X184050000Y-82350000D03*
X184050000Y-83000000D03*
X184050000Y-83650000D03*
X184050000Y-84300000D03*
X184050000Y-84950000D03*
D15*
X185050000Y-85950000D03*
X185700000Y-85950000D03*
X186350000Y-85950000D03*
X187000000Y-85950000D03*
X187650000Y-85950000D03*
X188300000Y-85950000D03*
X188950000Y-85950000D03*
D14*
X189950000Y-84950000D03*
X189950000Y-84300000D03*
X189950000Y-83650000D03*
X189950000Y-83000000D03*
X189950000Y-82350000D03*
X189950000Y-81700000D03*
X189950000Y-81050000D03*
D15*
X188950000Y-80050000D03*
X188300000Y-80050000D03*
X187650000Y-80050000D03*
X187000000Y-80050000D03*
X186350000Y-80050000D03*
X185700000Y-80050000D03*
X185050000Y-80050000D03*
D16*
X187000000Y-83000000D03*
%TD*%
D14*
%TO.C,U4*%
X115050000Y-81050000D03*
X115050000Y-81700000D03*
X115050000Y-82350000D03*
X115050000Y-83000000D03*
X115050000Y-83650000D03*
X115050000Y-84300000D03*
X115050000Y-84950000D03*
D15*
X116050000Y-85950000D03*
X116700000Y-85950000D03*
X117350000Y-85950000D03*
X118000000Y-85950000D03*
X118650000Y-85950000D03*
X119300000Y-85950000D03*
X119950000Y-85950000D03*
D14*
X120950000Y-84950000D03*
X120950000Y-84300000D03*
X120950000Y-83650000D03*
X120950000Y-83000000D03*
X120950000Y-82350000D03*
X120950000Y-81700000D03*
X120950000Y-81050000D03*
D15*
X119950000Y-80050000D03*
X119300000Y-80050000D03*
X118650000Y-80050000D03*
X118000000Y-80050000D03*
X117350000Y-80050000D03*
X116700000Y-80050000D03*
X116050000Y-80050000D03*
D16*
X118000000Y-83000000D03*
%TD*%
D17*
%TO.C,SWCUT1*%
X86265000Y-37000000D03*
X68735000Y-37000000D03*
%TD*%
D18*
%TO.C,H5*%
X296000000Y-100000000D03*
%TD*%
%TO.C,H4*%
X296000000Y-34000000D03*
%TD*%
%TO.C,H3*%
X164000000Y-32000000D03*
%TD*%
%TO.C,H2*%
X32000000Y-34000000D03*
%TD*%
%TO.C,H1*%
X32000000Y-100000000D03*
%TD*%
D19*
%TO.C,D39*%
X94287500Y-37000000D03*
X92712500Y-37000000D03*
%TD*%
%TO.C,D38*%
X56075000Y-37000000D03*
X54500000Y-37000000D03*
%TD*%
%TO.C,D37*%
X45287500Y-37000000D03*
X43712500Y-37000000D03*
%TD*%
%TO.C,D36*%
X208037500Y-37000000D03*
X206462500Y-37000000D03*
%TD*%
%TO.C,D35*%
X196787500Y-37000000D03*
X195212500Y-37000000D03*
%TD*%
%TO.C,D34*%
X195287500Y-52000000D03*
X193712500Y-52000000D03*
%TD*%
%TO.C,D33*%
X134662500Y-53000000D03*
X133087500Y-53000000D03*
%TD*%
%TO.C,D32*%
X141412500Y-53000000D03*
X139837500Y-53000000D03*
%TD*%
%TO.C,D31*%
X148162500Y-53000000D03*
X146587500Y-53000000D03*
%TD*%
%TO.C,D30*%
X154912500Y-53000000D03*
X153337500Y-53000000D03*
%TD*%
%TO.C,D29*%
X154787500Y-37000000D03*
X153212500Y-37000000D03*
%TD*%
%TO.C,D28*%
X149787500Y-37000000D03*
X148212500Y-37000000D03*
%TD*%
%TO.C,D27*%
X144787500Y-37000000D03*
X143212500Y-37000000D03*
%TD*%
%TO.C,D26*%
X139787500Y-37000000D03*
X138212500Y-37000000D03*
%TD*%
%TO.C,D25*%
X134787500Y-37000000D03*
X133212500Y-37000000D03*
%TD*%
D20*
%TO.C,D24*%
X290500000Y-108287500D03*
X290500000Y-106712500D03*
%TD*%
%TO.C,D23*%
X267500000Y-108287500D03*
X267500000Y-106712500D03*
%TD*%
%TO.C,D22*%
X256000000Y-84787500D03*
X256000000Y-83212500D03*
%TD*%
%TO.C,D21*%
X244500000Y-108287500D03*
X244500000Y-106712500D03*
%TD*%
%TO.C,D20*%
X233000000Y-84787500D03*
X233000000Y-83212500D03*
%TD*%
%TO.C,D19*%
X221500000Y-108287500D03*
X221500000Y-106712500D03*
%TD*%
%TO.C,D18*%
X210000000Y-84787500D03*
X210000000Y-83212500D03*
%TD*%
%TO.C,D17*%
X198500000Y-108287500D03*
X198500000Y-106712500D03*
%TD*%
%TO.C,D16*%
X175500000Y-108287500D03*
X175500000Y-106712500D03*
%TD*%
%TO.C,D15*%
X164000000Y-84787500D03*
X164000000Y-83212500D03*
%TD*%
%TO.C,D14*%
X152500000Y-108287500D03*
X152500000Y-106712500D03*
%TD*%
%TO.C,D13*%
X141000000Y-84787500D03*
X141000000Y-83212500D03*
%TD*%
%TO.C,D12*%
X129500000Y-108287500D03*
X129500000Y-106712500D03*
%TD*%
%TO.C,D11*%
X106500000Y-108287500D03*
X106500000Y-106712500D03*
%TD*%
%TO.C,D10*%
X95000000Y-84787500D03*
X95000000Y-83212500D03*
%TD*%
%TO.C,D9*%
X83500000Y-108287500D03*
X83500000Y-106712500D03*
%TD*%
%TO.C,D8*%
X72000000Y-84787500D03*
X72000000Y-83212500D03*
%TD*%
%TO.C,D7*%
X60500000Y-108287500D03*
X60500000Y-106712500D03*
%TD*%
%TO.C,D6*%
X49000000Y-84787500D03*
X49000000Y-83212500D03*
%TD*%
%TO.C,D5*%
X37500000Y-108275000D03*
X37500000Y-106700000D03*
%TD*%
D21*
%TO.C,D41*%
X32200000Y-83200000D03*
D22*
X32100000Y-84000000D03*
D21*
X32200000Y-84800000D03*
X30800000Y-83200000D03*
X30800000Y-84000000D03*
X30800000Y-84800000D03*
%TD*%
M02*
